<svg xmlns="http://www.w3.org/2000/svg" xmlns:xlink="http://www.w3.org/1999/xlink" preserveAspectRatio="xMidYMid" width="14.46" height="27.85" viewBox="0 0 14.46 27.85">
  <defs>
    <style>
      .cls-1 {
        fill: #1a1a1a;
        fill-rule: evenodd;
      }
    </style>
  </defs>
  <path d="M4.261,15.151 L4.261,27.858 L9.383,27.858 L9.383,15.151 L13.636,15.151 L14.289,10.196 L9.383,10.196 L9.383,7.032 C9.383,6.228 9.551,5.625 9.886,5.224 C10.220,4.822 10.868,4.621 11.828,4.621 L14.456,4.621 L14.456,0.201 C13.552,0.067 12.280,0.000 10.639,0.000 C8.708,0.000 7.162,0.573 6.002,1.716 C4.841,2.860 4.261,4.470 4.261,6.546 L4.261,10.196 L-0.008,10.196 L-0.008,15.151 L4.261,15.151 Z" class="cls-1"/>
</svg>
